<svg width="115" height="34" viewBox="0 0 115 34" fill="none" xmlns="http://www.w3.org/2000/svg">
<path d="M40.7549 10.4534H43.1951C43.4188 10.4459 43.6395 10.5055 43.829 10.6245C43.9916 10.7312 44.1094 10.8939 44.16 11.0817L45.885 17.6338C45.9411 17.847 46 18.0742 46.0561 18.3154C46.1155 18.5649 46.1596 18.8179 46.1879 19.0728C46.244 18.7923 46.3085 18.551 46.3759 18.3098C46.4432 18.0686 46.5105 17.847 46.575 17.6338L48.6085 11.0817C48.6723 10.9066 48.7877 10.755 48.9395 10.6469C49.1179 10.5153 49.3351 10.4472 49.5566 10.4534H50.4205C50.6412 10.4447 50.8594 10.5034 51.046 10.6217C51.2071 10.733 51.3265 10.8949 51.3854 11.0817L53.4021 17.6338C53.4666 17.8358 53.5311 18.049 53.6012 18.2762C53.6714 18.5034 53.7303 18.7474 53.7807 19.0054C53.8275 18.753 53.8752 18.5118 53.9238 18.2818C53.9724 18.0518 54.0229 17.8358 54.0753 17.6338L55.8171 11.0817C55.8734 10.9027 55.9879 10.7477 56.1425 10.6413C56.3242 10.513 56.5427 10.4471 56.7651 10.4534H59.0567L55.1776 23.0136H52.541L50.1793 15.2301C50.1372 15.1095 50.0951 14.9776 50.0531 14.8318C50.011 14.6859 49.9689 14.5373 49.9268 14.3746C49.8876 14.5373 49.8455 14.6887 49.8034 14.8318C49.7613 14.9748 49.7165 15.1123 49.6772 15.2301L47.2818 23.0136H44.6424L40.7549 10.4534Z" fill="#252528"/>
<path d="M68.8429 18.2369V23.0052H65.9287V18.2369L61.3763 10.4533H63.9512C64.1665 10.4417 64.3793 10.5041 64.5543 10.63C64.7079 10.7509 64.8317 10.9054 64.9161 11.0816L66.6944 14.728L67.0899 15.5386C67.2105 15.7854 67.3171 16.0322 67.4096 16.2735C67.4973 16.0197 67.6004 15.7715 67.7182 15.5302C67.8388 15.2833 67.9706 15.0169 68.1081 14.728L69.8667 11.0816C69.9048 11.0018 69.9519 10.9265 70.007 10.8572C70.0698 10.7837 70.1393 10.7161 70.2145 10.6553C70.3 10.5926 70.3946 10.5434 70.495 10.5094C70.6011 10.4713 70.7132 10.4523 70.826 10.4533H73.4121L68.8429 18.2369Z" fill="#252528"/>
<path d="M88.0732 16.7335C88.0838 17.5977 87.9237 18.4556 87.6019 19.2579C87.3044 20.0061 86.8545 20.6843 86.2808 21.2493C85.6919 21.8222 84.9924 22.2689 84.2249 22.562C83.3717 22.883 82.4661 23.0419 81.5546 23.0304H76.6713V10.4533H81.549C82.4611 10.4409 83.3672 10.6018 84.2193 10.9274C84.9855 11.2216 85.6847 11.6671 86.2752 12.2372C86.8489 12.8012 87.2988 13.4785 87.5963 14.2259C87.9185 15.0223 88.0806 15.8744 88.0732 16.7335ZM85.0916 16.7335C85.0989 16.1634 85.0175 15.5956 84.8504 15.0505C84.7068 14.5843 84.4702 14.1521 84.1548 13.7799C83.848 13.4292 83.4639 13.1546 83.0328 12.9777C82.5598 12.7833 82.0519 12.6879 81.5406 12.6972H79.6024V20.7753H81.549C82.0603 20.7847 82.5682 20.6892 83.0412 20.4948C83.4729 20.3189 83.8572 20.0442 84.1632 19.6926C84.4786 19.3205 84.7152 18.8882 84.8588 18.422C85.0212 17.8743 85.0978 17.3047 85.086 16.7335H85.0916Z" fill="#252528"/>
<path d="M99.9659 10.4533V12.6972H94.8049V15.6283H98.7513V17.7825H94.8049V20.7725H99.9659V23.0164H91.8794V10.4533H99.9659Z" fill="#252528"/>
<path d="M105.887 10.4702C105.967 10.4799 106.046 10.5016 106.12 10.5347C106.193 10.5683 106.26 10.6138 106.319 10.6693C106.396 10.7419 106.468 10.8197 106.535 10.9021L112.501 18.4444C112.476 18.2032 112.459 17.9704 112.448 17.7432C112.436 17.516 112.431 17.3 112.431 17.1009V10.4533H115V23.0136H113.483C113.29 23.0185 113.099 22.9832 112.922 22.9098C112.743 22.823 112.589 22.6928 112.473 22.5311L106.543 15.0505C106.56 15.2693 106.574 15.4825 106.585 15.6928C106.597 15.9032 106.602 16.0995 106.602 16.2847V23.0164H104.033V10.4533H105.567C105.674 10.4522 105.781 10.4579 105.887 10.4702Z" fill="#252528"/>
<path d="M35.3695 13.031C35.0159 13.4286 34.5821 13.7466 34.0966 13.9643C33.6111 14.1819 33.085 14.2942 32.553 14.2936C32.021 14.2931 31.4951 14.1797 31.01 13.9611C30.525 13.7425 30.0918 13.4235 29.7391 13.0252C29.3863 12.6269 29.122 12.1584 28.9635 11.6505C28.8051 11.1426 28.7561 10.6069 28.8198 10.0787C28.8835 9.55051 29.0585 9.04181 29.3331 8.58616C29.6078 8.13051 29.976 7.73827 30.4133 7.43529C31.0239 7.00773 31.7492 6.77411 32.4945 6.76492C32.5178 6.76199 32.5414 6.76199 32.5646 6.76492C33.2295 6.76424 33.8826 6.93939 34.4579 7.2726L29.4456 3.62626C27.6852 2.23079 25.6622 1.20344 23.4968 0.605229C21.3315 0.00702158 19.068 -0.14983 16.8408 0.144001C14.6137 0.437832 12.4683 1.17634 10.5322 2.31566C8.59613 3.45498 6.90879 4.97185 5.57048 6.77614H8.37536L16.0439 22.576L11.2195 30.6204L4.4878 16.3155L2.77122 12.6692L0 6.75931L2.44025 19.0531C3.02514 23.2565 5.18347 27.0813 8.47929 29.7549C11.7751 32.4286 15.9628 33.7518 20.1965 33.4573C24.4302 33.1628 28.3943 31.2725 31.2882 28.1683C34.1821 25.0641 35.7901 20.9774 35.7874 16.7335C35.7904 15.4874 35.6502 14.2451 35.3695 13.031ZM24.5651 30.6204L13.3456 6.75931H21.7154L29.3839 22.5592L24.5651 30.6204Z" fill="url(#paint0_linear_1_275)"/>
<path d="M35.3695 13.031C35.0159 13.4286 34.5821 13.7466 34.0966 13.9643C33.6111 14.1819 33.085 14.2942 32.553 14.2936C32.021 14.2931 31.4951 14.1797 31.01 13.9611C30.525 13.7425 30.0918 13.4235 29.7391 13.0252C29.3863 12.6269 29.122 12.1584 28.9635 11.6505C28.8051 11.1426 28.7561 10.6069 28.8198 10.0787C28.8835 9.55051 29.0585 9.04181 29.3331 8.58616C29.6078 8.13051 29.976 7.73827 30.4133 7.43529C31.0239 7.00773 31.7492 6.77411 32.4945 6.76492C32.5178 6.76199 32.5414 6.76199 32.5646 6.76492C33.2295 6.76424 33.8826 6.93939 34.4579 7.2726L29.4456 3.62626C27.6852 2.23079 25.6622 1.20344 23.4968 0.605229C21.3315 0.00702158 19.068 -0.14983 16.8408 0.144001C14.6137 0.437832 12.4683 1.17634 10.5322 2.31566C8.59613 3.45498 6.90879 4.97185 5.57048 6.77614H8.37536L16.0439 22.576L11.2195 30.6204L4.4878 16.3155L2.77122 12.6692L0 6.75931L2.44025 19.0531C3.02514 23.2565 5.18347 27.0813 8.47929 29.7549C11.7751 32.4286 15.9628 33.7518 20.1965 33.4573C24.4302 33.1628 28.3943 31.2725 31.2882 28.1683C34.1821 25.0641 35.7901 20.9774 35.7874 16.7335C35.7904 15.4874 35.6502 14.2451 35.3695 13.031ZM24.5651 30.6204L13.3456 6.75931H21.7154L29.3839 22.5592L24.5651 30.6204Z" fill="#252528"/>
<path d="M35.3695 13.031C35.0159 13.4286 34.5821 13.7466 34.0966 13.9643C33.6111 14.1819 33.085 14.2942 32.553 14.2936C32.021 14.2931 31.4951 14.1797 31.01 13.9611C30.525 13.7425 30.0918 13.4235 29.7391 13.0252C29.3863 12.6269 29.122 12.1584 28.9635 11.6505C28.8051 11.1426 28.7561 10.6069 28.8198 10.0787C28.8835 9.55051 29.0585 9.04181 29.3331 8.58616C29.6078 8.13051 29.976 7.73827 30.4133 7.43529C31.0239 7.00773 31.7492 6.77411 32.4945 6.76492C32.5178 6.76199 32.5414 6.76199 32.5646 6.76492C33.2295 6.76424 33.8826 6.93939 34.4579 7.2726L29.4456 3.62626C27.6852 2.23079 25.6622 1.20344 23.4968 0.605229C21.3315 0.00702158 19.068 -0.14983 16.8408 0.144001C14.6137 0.437832 12.4683 1.17634 10.5322 2.31566C8.59613 3.45498 6.90879 4.97185 5.57048 6.77614H8.37536L16.0439 22.576L11.2195 30.6204L4.4878 16.3155L2.77122 12.6692L0 6.75931L2.44025 19.0531C3.02514 23.2565 5.18347 27.0813 8.47929 29.7549C11.7751 32.4286 15.9628 33.7518 20.1965 33.4573C24.4302 33.1628 28.3943 31.2725 31.2882 28.1683C34.1821 25.0641 35.7901 20.9774 35.7874 16.7335C35.7904 15.4874 35.6502 14.2451 35.3695 13.031ZM24.5651 30.6204L13.3456 6.75931H21.7154L29.3839 22.5592L24.5651 30.6204Z" fill="url(#paint1_linear_1_275)"/>
<defs>
<linearGradient id="paint0_linear_1_275" x1="5.20585" y1="5.39895" x2="32.531" y2="27.4229" gradientUnits="userSpaceOnUse">
<stop stop-color="#F7931E"/>
<stop offset="0.52" stop-color="#ED1E79"/>
<stop offset="1" stop-color="#662D91"/>
</linearGradient>
<linearGradient id="paint1_linear_1_275" x1="5.20585" y1="5.39895" x2="32.531" y2="27.4229" gradientUnits="userSpaceOnUse">
<stop stop-color="#FFCC26"/>
<stop offset="1" stop-color="#FD346E"/>
</linearGradient>
</defs>
</svg>
